<svg xmlns="http://www.w3.org/2000/svg" width="325" height="224" viewBox="0 0 325 224">
    <defs>
        <filter id="a" width="122.9%" height="116%" x="-11.4%" y="-8%" filterUnits="objectBoundingBox">
            <feOffset dy="1" in="SourceAlpha" result="shadowOffsetOuter1"/>
            <feGaussianBlur in="shadowOffsetOuter1" result="shadowBlurOuter1" stdDeviation="1.5"/>
            <feColorMatrix in="shadowBlurOuter1" result="shadowMatrixOuter1" values="0 0 0 0 0.612058886 0 0 0 0 0.612058886 0 0 0 0 0.612058886 0 0 0 0.2 0"/>
            <feMerge>
                <feMergeNode in="shadowMatrixOuter1"/>
                <feMergeNode in="SourceGraphic"/>
            </feMerge>
        </filter>
        <filter id="b" width="122.9%" height="116%" x="-11.4%" y="-8%" filterUnits="objectBoundingBox">
            <feOffset dy="1" in="SourceAlpha" result="shadowOffsetOuter1"/>
            <feGaussianBlur in="shadowOffsetOuter1" result="shadowBlurOuter1" stdDeviation="1.5"/>
            <feColorMatrix in="shadowBlurOuter1" result="shadowMatrixOuter1" values="0 0 0 0 0.612058886 0 0 0 0 0.612058886 0 0 0 0 0.612058886 0 0 0 0.2 0"/>
            <feMerge>
                <feMergeNode in="shadowMatrixOuter1"/>
                <feMergeNode in="SourceGraphic"/>
            </feMerge>
        </filter>
    </defs>
    <g fill="none" fill-rule="evenodd" transform="translate(-2 -1)">
        <path fill="#6CAAF3" d="M317.176 165.515c2.454 1.051 5.494 1.656 9.121 1.815-2.21 2.88-3.7 5.599-4.473 8.155-2.454-1.051-5.494-1.656-9.121-1.815 2.21-2.88 3.7-5.599 4.473-8.155z"/>
        <path fill="#F5858B" d="M37.532 107.226c1.61.646 3.614 1 6.01 1.06-1.494 1.873-2.512 3.635-3.052 5.284-1.61-.646-3.614-.999-6.01-1.059 1.494-1.874 2.511-3.636 3.052-5.285z"/>
        <path fill="#6780E6" d="M264.164 144.382c.523.14.92.449 1.193.925.272.477.338.976.198 1.499-.14.523-.446.92-.92 1.194-.473.273-.97.34-1.493.2a1.925 1.925 0 0 1-1.13-.81 1.896 1.896 0 0 1-.32-1.357l-.264-.071c-.295 1.208-.302 2.268-.023 3.18l-2.117-.568c.698-.65 1.221-1.57 1.57-2.765l-.265-.07a1.896 1.896 0 0 1-.954 1.015 1.925 1.925 0 0 1-1.384.136 1.897 1.897 0 0 1-1.193-.92 1.897 1.897 0 0 1-.2-1.493c.14-.523.447-.923.921-1.2a1.889 1.889 0 0 1 1.495-.204c.502.134.89.424 1.164.868l.268-.266a2.077 2.077 0 0 1-.564-.948 2.026 2.026 0 0 1-.013-1.094c.148-.55.47-.969.97-1.257a1.998 1.998 0 0 1 1.573-.211c.55.147.969.47 1.257.97.288.498.358 1.023.211 1.572-.096.36-.282.674-.558.942a2.077 2.077 0 0 1-.962.539l.098.364c.46-.248.94-.304 1.442-.17z"/>
        <path fill="#F5C57E" d="M17.565 188.45c1.108.277 1.958.913 2.55 1.909.593.996.751 2.048.475 3.156-.276 1.109-.91 1.96-1.898 2.554-.989.594-2.037.753-3.146.477a4.064 4.064 0 0 1-2.415-1.669 4.004 4.004 0 0 1-.722-2.851l-.562-.14c-.577 2.562-.554 4.8.07 6.713l-4.49-1.12c1.448-1.397 2.519-3.362 3.211-5.894l-.56-.14a4.004 4.004 0 0 1-1.977 2.178 4.064 4.064 0 0 1-2.916.34c-1.109-.277-1.96-.91-2.554-1.899-.594-.988-.753-2.037-.477-3.145.277-1.108.91-1.963 1.9-2.564.991-.602 2.04-.764 3.149-.488a4.008 4.008 0 0 1 2.489 1.79l.555-.572a4.384 4.384 0 0 1-1.226-1.98 4.276 4.276 0 0 1-.066-2.31c.29-1.165.957-2.061 2-2.688 1.043-.627 2.147-.795 3.313-.504 1.165.29 2.062.958 2.688 2 .627 1.043.795 2.147.504 3.313a4.276 4.276 0 0 1-1.143 2.008 4.384 4.384 0 0 1-2.012 1.172l.222.766a4.008 4.008 0 0 1 3.038-.412zM203.832 5.917c.525.131.928.432 1.208.904.281.472.356.97.225 1.495-.13.525-.43.928-.899 1.21a1.897 1.897 0 0 1-1.49.226 1.925 1.925 0 0 1-1.144-.79 1.896 1.896 0 0 1-.342-1.351l-.266-.067c-.274 1.214-.263 2.274.032 3.18l-2.126-.53c.686-.662 1.193-1.593 1.521-2.792l-.266-.067c-.18.462-.492.806-.936 1.032-.444.226-.904.28-1.381.16a1.897 1.897 0 0 1-1.21-.898 1.897 1.897 0 0 1-.226-1.49c.131-.525.431-.93.9-1.215.47-.285.967-.362 1.492-.23.504.125.897.408 1.179.847l.263-.271a2.077 2.077 0 0 1-.581-.938 2.026 2.026 0 0 1-.031-1.094c.137-.552.453-.976.947-1.273a1.998 1.998 0 0 1 1.57-.239c.552.138.976.454 1.273.948.297.494.376 1.017.239 1.569-.09.361-.271.678-.542.951-.27.273-.588.458-.953.555l.105.363c.455-.256.935-.32 1.44-.195z"/>
        <path fill="#F5858B" d="M278.689 67.97c0-.54.194-1.004.584-1.39.39-.387.856-.58 1.397-.58.54 0 1.004.193 1.39.58.387.386.58.85.58 1.39 0 .493-.163.926-.49 1.302a1.896 1.896 0 0 1-1.227.659v.274c1.243-.028 2.269-.295 3.077-.801v2.192c-.808-.506-1.834-.773-3.077-.8v.273c.492.063.9.283 1.227.659.327.376.49.81.49 1.301 0 .541-.193 1.005-.58 1.391-.386.387-.85.58-1.39.58a1.915 1.915 0 0 1-1.397-.58 1.889 1.889 0 0 1-.584-1.39c0-.52.179-.97.537-1.35l-.327-.19c-.182.33-.439.594-.769.791-.33.197-.682.295-1.054.295-.569 0-1.057-.204-1.465-.611A1.998 1.998 0 0 1 275 70.5c0-.57.204-1.057.611-1.465a1.998 1.998 0 0 1 1.465-.611c.372 0 .724.098 1.054.295.33.197.587.46.77.79l.326-.19a1.898 1.898 0 0 1-.537-1.348z"/>
        <path fill="#8496E0" d="M79.537 212.678c-.18.07-.632.555-1.358 1.455l-1.378 1.741c-.386.44-.728.757-1.025.954-.343.229-.777.408-1.301.539-.441.11-.858.084-1.251-.077-.431-.177-.698-.47-.8-.878-.101-.408-.01-.787.277-1.137a1.924 1.924 0 0 1 1.06-.652l-.055-.22c-.48.12-.954.3-1.424.54-.511.263-.925.55-1.24.862l-.475-1.9c.883.271 1.886.267 3.011-.013l-.055-.22c-.44.11-.854.084-1.241-.078-.417-.175-.676-.466-.778-.874-.102-.409-.004-.792.293-1.151a1.967 1.967 0 0 1 1.07-.655c.523-.13.99-.176 1.4-.136.356.035.807.155 1.354.362l2.034.89c1.063.454 1.69.67 1.882.648zM112.5 196c.019.149.29.581.814 1.299l1.02 1.367c.25.374.42.692.51.953.104.302.156.663.156 1.084 0 .353-.094.663-.283.93-.208.291-.47.437-.786.437-.317 0-.576-.14-.78-.422a1.532 1.532 0 0 1-.283-.922h-.17c0 .384.045.776.135 1.175.099.436.234.802.404 1.099h-1.474c.36-.615.539-1.373.539-2.274h-.17c0 .353-.095.66-.284.922-.203.281-.462.422-.779.422-.316 0-.578-.146-.786-.438a1.566 1.566 0 0 1-.283-.93c0-.42.052-.78.156-1.083.09-.261.26-.579.51-.953l1.02-1.367c.524-.718.795-1.15.814-1.299z"/>
        <path fill="#F5858B" d="M219.822 197.303c.817.347 1.325.983 1.523 1.907.174.81.087 1.625-.26 2.445l.23.097c.347-.819.878-1.445 1.592-1.879.803-.5 1.613-.575 2.43-.229.827.351 1.339 1.006 1.535 1.964.186.839.101 1.677-.255 2.516-.368.868-1.189 1.75-2.462 2.65-.485.346-1.728 1.101-3.729 2.266-1.557.916-2.663 1.69-3.317 2.321 0-.91-.211-2.242-.635-3.998-.552-2.249-.872-3.668-.959-4.257-.238-1.54-.173-2.744.195-3.612.356-.839.9-1.482 1.633-1.93.826-.525 1.652-.612 2.479-.26z"/>
        <path fill="#6CAAF3" d="M17.46 26c1.05 0 1.895.525 2.537 1.574.564.92.846 1.984.846 3.192h.295c0-1.208.288-2.271.865-3.192.642-1.05 1.488-1.574 2.536-1.574 1.062 0 1.92.546 2.576 1.639.59.949.885 2.042.885 3.278 0 1.28-.485 2.818-1.455 4.615-.367.69-1.37 2.294-3.008 4.81C22.265 42.312 21.419 43.864 21 45c-.42-1.136-1.265-2.689-2.537-4.658-1.638-2.516-2.64-4.12-3.008-4.81-.97-1.797-1.455-3.335-1.455-4.615 0-1.236.295-2.329.885-3.278C15.54 26.546 16.399 26 17.46 26z"/>
        <circle cx="159" cy="124" r="80" fill="#6CAAF3" fill-opacity=".78" fill-rule="nonzero"/>
        <path fill="#FFF" d="M133.832 92.336c-2.448 0-4.36-.696-5.736-2.088-1.376-1.392-2.064-3.472-2.064-6.24 0-2.72.676-4.788 2.028-6.204 1.352-1.416 3.276-2.124 5.772-2.124 2.448 0 4.364.692 5.748 2.076 1.384 1.384 2.076 3.46 2.076 6.228 0 2.72-.676 4.792-2.028 6.216-1.352 1.424-3.284 2.136-5.796 2.136zm0-3.192c1.264 0 2.216-.4 2.856-1.2.64-.8.96-2.12.96-3.96 0-1.84-.316-3.156-.948-3.948-.632-.792-1.588-1.188-2.868-1.188-1.264 0-2.212.4-2.844 1.2-.632.8-.948 2.128-.948 3.984 0 1.824.316 3.132.948 3.924.632.792 1.58 1.188 2.844 1.188zm15.912 3.216c-2.048 0-3.584-.544-4.608-1.632-1.024-1.088-1.536-2.704-1.536-4.848 0-2.24.508-3.872 1.524-4.896s2.556-1.536 4.62-1.536 3.616.524 4.656 1.572c1.04 1.048 1.56 2.668 1.56 4.86 0 2.112-.536 3.72-1.608 4.824-1.072 1.104-2.608 1.656-4.608 1.656zm0-2.856c.88 0 1.544-.308 1.992-.924.448-.616.672-1.516.672-2.7 0-1.296-.22-2.22-.66-2.772-.44-.552-1.108-.828-2.004-.828-.928 0-1.596.276-2.004.828-.408.552-.612 1.476-.612 2.772 0 1.232.212 2.144.636 2.736.424.592 1.084.888 1.98.888zm14.472-10.056c1.952 0 3.464.508 4.536 1.524 1.072 1.016 1.608 2.708 1.608 5.076 0 1.904-.48 3.432-1.44 4.584-.96 1.152-2.272 1.728-3.936 1.728-1.216 0-2.232-.216-3.048-.648v4.632h-3.504v-13.92c0-.976.54-1.712 1.62-2.208 1.08-.496 2.468-.752 4.164-.768zm-.288 10.032c.976 0 1.696-.272 2.16-.816.464-.544.696-1.456.696-2.736 0-1.152-.204-2.02-.612-2.604-.408-.584-1.108-.876-2.1-.876-1.424 0-2.136.272-2.136.816v5.712c.288.176.608.304.96.384.352.08.696.12 1.032.12zm12.528 2.88c-.768 0-1.44-.076-2.016-.228a15.75 15.75 0 0 1-1.92-.66v-3.144c1.296.976 2.656 1.464 4.08 1.464.544 0 .94-.092 1.188-.276a.89.89 0 0 0 .372-.756c0-.368-.2-.64-.6-.816-.4-.176-1.04-.368-1.92-.576-.928-.192-1.692-.576-2.292-1.152-.6-.576-.9-1.416-.9-2.52 0-.944.24-1.72.72-2.328a4.177 4.177 0 0 1 1.812-1.332 6.265 6.265 0 0 1 2.268-.42c.96 0 1.74.084 2.34.252.6.168 1.188.428 1.764.78v2.808c-.816-.448-1.448-.768-1.896-.96-.448-.192-.968-.288-1.56-.288-.592 0-1.032.092-1.32.276a.875.875 0 0 0-.432.78c0 .4.16.692.48.876.32.184.832.372 1.536.564.8.208 1.432.412 1.896.612.464.2.88.544 1.248 1.032s.552 1.172.552 2.052c-.032 1.376-.552 2.38-1.56 3.012-1.008.632-2.288.948-3.84.948zm9.768-16.368h3.432l-.432 11.592h-2.592l-.408-11.592zm.12 13.272h3.168V92h-3.168v-2.736z"/>
        <g filter="url(#a)" transform="rotate(16 -292.903 582.23)">
            <path fill="#FFF" fill-rule="nonzero" d="M8 0h54a8 8 0 0 1 8 8v84a8 8 0 0 1-8 8H8a8 8 0 0 1-8-8V8a8 8 0 0 1 8-8z"/>
            <path fill="#000" fill-opacity=".5" d="M33.412 58.277h4.275v4.255h-4.275v-4.255zm1.87-17.928c-1.557 0-2.78.487-3.67 1.462-.83.872-1.285 2.05-1.366 3.531H27c.101-2.354.915-4.333 2.442-5.937C30.97 37.802 32.916 37 35.282 37c2.246 0 4.187.771 5.825 2.314 1.639 1.543 2.458 3.41 2.458 5.602 0 1.847-.607 3.466-1.82 4.856-1.214 1.39-2.822 2.32-4.824 2.786v2.527h-3.247l-.03-5.693h1.638a5.353 5.353 0 0 0 3.505-1.264c1.021-.842 1.532-1.913 1.532-3.212 0-1.32-.526-2.426-1.578-3.319-1.011-.832-2.164-1.248-3.459-1.248z"/>
        </g>
        <g filter="url(#b)" transform="translate(102 121)">
            <path fill="#FFF" fill-rule="nonzero" d="M8 0h54a8 8 0 0 1 8 8v84a8 8 0 0 1-8 8H8a8 8 0 0 1-8-8V8a8 8 0 0 1 8-8z"/>
            <path fill="#000" fill-opacity=".5" d="M33.412 58.277h4.275v4.255h-4.275v-4.255zm1.87-17.928c-1.557 0-2.78.487-3.67 1.462-.83.872-1.285 2.05-1.366 3.531H27c.101-2.354.915-4.333 2.442-5.937C30.97 37.802 32.916 37 35.282 37c2.246 0 4.187.771 5.825 2.314 1.639 1.543 2.458 3.41 2.458 5.602 0 1.847-.607 3.466-1.82 4.856-1.214 1.39-2.822 2.32-4.824 2.786v2.527h-3.247l-.03-5.693h1.638a5.353 5.353 0 0 0 3.505-1.264c1.021-.842 1.532-1.913 1.532-3.212 0-1.32-.526-2.426-1.578-3.319-1.011-.832-2.164-1.248-3.459-1.248z"/>
        </g>
    </g>
</svg>
